<svg width="301" height="301" viewBox="0 0 301 301" fill="none" xmlns="http://www.w3.org/2000/svg">
<g clip-path="url(#clip0_1017_694)">
<path d="M93.0732 50.7262L187.377 25.1309L197.678 63.0715C204.743 89.0897 189.351 115.948 163.327 123.011C137.303 130.075 110.44 114.685 103.375 88.6666L93.0732 50.7262Z" fill="#729D69"/>
<path d="M150.445 126.478C141.734 126.478 133.134 124.208 125.371 119.761C113.645 113.043 105.237 102.162 101.696 89.1215L91.3947 51.1808C91.2739 50.7358 91.3348 50.261 91.5641 49.8609C91.7934 49.4608 92.1723 49.1682 92.6173 49.0474L186.921 23.453C187.366 23.3327 187.841 23.3935 188.241 23.6222C188.641 23.8515 188.934 24.2303 189.055 24.6753L199.356 62.616C202.897 75.6564 201.146 89.2946 194.427 101.019C187.708 112.742 176.824 121.149 163.781 124.689C159.373 125.885 154.894 126.478 150.445 126.478L150.445 126.478ZM95.207 51.9478L105.053 88.2106C110.741 109.162 129.796 122.982 150.538 122.984C154.615 122.984 158.752 122.451 162.871 121.333C187.945 114.528 202.807 88.5962 196 63.5273L186.154 27.2645L95.207 51.9478Z" fill="#1E284C"/>
<path d="M175.434 178.753C181.593 178.753 186.586 173.761 186.586 167.604C186.586 161.447 181.593 156.455 175.434 156.455C169.276 156.455 164.283 161.447 164.283 167.604C164.283 173.761 169.276 178.753 175.434 178.753Z" fill="#729D69"/>
<path d="M175.413 180.498C173.194 180.498 171.003 179.919 169.025 178.786C166.038 177.075 163.896 174.303 162.994 170.981C161.132 164.122 165.197 157.028 172.057 155.167C175.379 154.265 178.855 154.71 181.842 156.422C184.83 158.134 186.972 160.906 187.874 164.228C189.736 171.086 185.67 178.18 178.811 180.042C177.703 180.344 176.561 180.497 175.413 180.498ZM175.449 158.19C174.621 158.19 173.788 158.3 172.968 158.523C167.959 159.882 164.991 165.062 166.35 170.07C167.009 172.496 168.573 174.52 170.754 175.77C172.936 177.02 175.474 177.345 177.9 176.686C182.908 175.327 185.877 170.147 184.517 165.139C183.859 162.713 182.295 160.689 180.113 159.439C178.669 158.612 177.069 158.19 175.449 158.19Z" fill="#1E284C"/>
<path d="M156.457 124.362L169.937 120.703L179.897 157.385L166.417 161.044L156.457 124.362Z" fill="#729D69"/>
<path d="M166.417 162.782C166.035 162.782 165.664 162.657 165.36 162.425C165.057 162.193 164.838 161.868 164.738 161.499L154.779 124.817C154.658 124.372 154.719 123.897 154.948 123.497C155.177 123.097 155.556 122.805 156.001 122.684L169.481 119.025C169.926 118.905 170.401 118.966 170.801 119.195C171.201 119.424 171.494 119.803 171.615 120.248L181.575 156.93C181.696 157.375 181.635 157.849 181.405 158.249C181.176 158.65 180.797 158.942 180.352 159.063L166.872 162.722C166.724 162.762 166.57 162.782 166.416 162.782H166.417ZM158.591 125.584L167.639 158.91L177.763 156.163L168.714 122.836L158.591 125.584Z" fill="#1E284C"/>
<path d="M212.687 183.299C210.497 175.69 198.498 172.098 184.452 174.164L170.972 177.823C157.808 183.142 149.273 192.307 151.233 199.978L212.687 183.299Z" fill="#729D69"/>
<path d="M151.233 201.716C150.847 201.716 150.472 201.587 150.167 201.35C149.862 201.113 149.644 200.782 149.548 200.408C147.394 191.973 155.936 182.022 170.321 176.21C170.385 176.184 170.45 176.162 170.517 176.144L183.997 172.485C184.064 172.467 184.131 172.453 184.199 172.443C199.551 170.185 211.952 174.452 214.359 182.818C214.422 183.039 214.441 183.271 214.415 183.5C214.388 183.729 214.316 183.951 214.203 184.152C214.09 184.352 213.938 184.529 213.756 184.67C213.574 184.812 213.366 184.916 213.143 184.976L151.689 201.655C151.54 201.696 151.387 201.716 151.233 201.716H151.233ZM171.528 179.472C160.153 184.094 152.643 191.519 152.692 197.78L210.317 182.14C207.192 176.714 196.959 174.104 184.807 175.869L171.528 179.472Z" fill="#1E284C"/>
<path d="M140.159 202.984L223.763 180.293L233.121 214.755L149.516 237.447L140.159 202.984Z" fill="#1E284C"/>
<path d="M149.515 239.187C149.133 239.187 148.762 239.061 148.459 238.829C148.156 238.597 147.938 238.272 147.838 237.904L138.481 203.441C138.36 202.996 138.421 202.522 138.65 202.122C138.879 201.722 139.258 201.429 139.703 201.308L223.307 178.617C223.528 178.558 223.758 178.542 223.984 178.571C224.211 178.6 224.43 178.673 224.628 178.787C224.826 178.9 225 179.052 225.139 179.232C225.279 179.413 225.382 179.619 225.441 179.84L234.798 214.302C234.919 214.747 234.858 215.222 234.629 215.622C234.4 216.022 234.021 216.315 233.576 216.435L149.971 239.126C149.823 239.167 149.669 239.187 149.515 239.187ZM142.293 204.208L150.739 235.315L230.987 213.535L222.54 182.429L142.293 204.208Z" fill="#1E284C"/>
<path d="M156.578 208.354L212.314 193.227L216.702 209.384L160.965 224.512L156.578 208.354Z" fill="white"/>
<path d="M160.965 226.253C160.583 226.253 160.211 226.128 159.908 225.896C159.605 225.664 159.386 225.339 159.286 224.97L154.899 208.812C154.778 208.367 154.839 207.893 155.068 207.492C155.298 207.092 155.677 206.8 156.122 206.679L211.858 191.552C212.078 191.492 212.309 191.476 212.535 191.505C212.762 191.534 212.98 191.607 213.178 191.721C213.376 191.834 213.55 191.986 213.69 192.167C213.83 192.347 213.932 192.554 213.992 192.774L218.379 208.932C218.5 209.377 218.439 209.852 218.21 210.252C217.98 210.652 217.602 210.944 217.157 211.065L161.42 226.193C161.271 226.233 161.118 226.253 160.964 226.253H160.965ZM158.711 209.579L162.187 222.381L214.567 208.165L211.091 195.363L158.711 209.579ZM111.566 108.251C108.978 108.251 101.51 108.008 93.3403 105.5C79.9808 101.4 71.272 93.1665 68.1556 81.6882C66.8567 76.9044 67.345 71.66 69.495 67.2998C71.7626 62.7008 75.6 59.4655 80.3001 58.1899C84.7122 56.9921 89.0977 57.4606 92.6493 59.5077C96.1818 61.5442 98.7819 65.0774 99.9709 69.4568C100.931 72.9927 100.625 76.3564 99.0866 79.1843C97.6061 81.9051 95.0823 83.8675 91.9804 84.7094C88.3798 85.6875 85.7452 84.7676 84.1699 83.8237C82.2392 82.6676 80.8127 80.829 80.256 78.7798C79.2303 75.0019 81.2695 71.1482 84.8015 70.1891C86.5119 69.7248 88.3019 69.9541 89.8406 70.8359C91.3787 71.7173 92.4819 73.1446 92.9464 74.8551C93.0664 75.2999 93.005 75.7741 92.7756 76.1736C92.5463 76.5731 92.1677 76.8653 91.7231 76.986C91.2784 77.1067 90.804 77.046 90.4041 76.8173C90.0041 76.5886 89.7113 76.2106 89.5899 75.7662C89.4822 75.3653 89.2961 74.9898 89.0423 74.6614C88.7885 74.3329 88.4721 74.0581 88.1113 73.8528C87.7517 73.6455 87.3546 73.5115 86.9428 73.4587C86.5311 73.4059 86.113 73.4353 85.7127 73.5451C84.0597 73.9939 83.0982 75.9739 83.6125 77.8688C83.9308 79.0413 84.807 80.1521 85.9568 80.8404C87.3856 81.6958 89.1528 81.8736 91.069 81.3534C93.2464 80.7625 95.0088 79.402 96.0311 77.5226C97.1334 75.4968 97.3351 73.0226 96.6142 70.3679C95.6538 66.8308 93.6821 64.1172 90.912 62.5202C88.1287 60.9156 84.7748 60.5785 81.2111 61.5459C77.4876 62.5561 74.4346 65.1457 72.6145 68.8374C70.8338 72.4482 70.4322 76.8003 71.512 80.7774C74.3324 91.1655 81.9899 98.3558 94.2722 102.149C103.64 105.042 112.301 104.765 112.388 104.762C112.616 104.754 112.844 104.79 113.058 104.87C113.272 104.949 113.468 105.07 113.636 105.226C113.803 105.381 113.938 105.568 114.033 105.776C114.128 105.983 114.181 106.208 114.189 106.436C114.206 106.896 114.04 107.345 113.726 107.683C113.413 108.02 112.978 108.22 112.517 108.237C112.451 108.24 112.121 108.251 111.566 108.251ZM198.869 84.785C198.555 84.7853 198.246 84.7001 197.976 84.5387C197.706 84.3773 197.485 84.1456 197.336 83.8684C197.118 83.4622 197.07 82.9861 197.203 82.5447C197.336 82.1032 197.639 81.7327 198.045 81.5145C198.142 81.4619 205.743 77.3231 212.352 70.1015C221.03 60.6198 223.999 50.545 221.179 40.1569C220.099 36.1798 217.551 32.6282 214.189 30.4134C210.751 28.1483 206.808 27.458 203.084 28.4687C199.521 29.4358 196.797 31.4223 195.208 34.2136C193.626 36.9916 193.297 40.3298 194.257 43.8669C195.669 49.066 199.921 51.8112 204.598 50.5413C209.015 49.3424 209.807 45.7487 209.268 43.7653C209.015 42.8323 208.421 42.0102 207.637 41.5097C206.889 41.032 206.048 40.885 205.27 41.0969C204.869 41.2045 204.493 41.3906 204.165 41.6443C203.836 41.8981 203.561 42.2145 203.356 42.5752C203.148 42.9347 203.014 43.3318 202.962 43.7435C202.909 44.1551 202.938 44.5731 203.048 44.9733C203.168 45.4181 203.107 45.8923 202.877 46.2918C202.648 46.6913 202.27 46.9835 201.825 47.1042C201.38 47.2249 200.906 47.1642 200.506 46.9355C200.106 46.7068 199.813 46.3287 199.692 45.8844C199.227 44.1735 199.457 42.3844 200.338 40.8465C201.22 39.3082 202.648 38.2054 204.359 37.7411C206.096 37.2701 207.925 37.5677 209.51 38.5798C211.035 39.5539 212.141 41.0721 212.625 42.8545C213.758 47.0258 211.406 52.2969 205.509 53.8976C198.962 55.674 192.819 51.839 190.901 44.7781C189.712 40.3987 190.168 36.0359 192.186 32.4932C194.214 28.9319 197.761 26.3107 202.174 25.1131C206.874 23.8379 211.82 24.6885 216.103 27.5101C220.163 30.1851 223.237 34.4625 224.536 39.2463C227.652 50.7247 224.303 62.2311 214.851 72.5221C207.833 80.163 200.02 84.4016 199.691 84.5782C199.438 84.7142 199.156 84.7855 198.87 84.7857L198.869 84.785Z" fill="#1E284C"/>
<path d="M172.524 130.232C165.524 130.863 161.73 132.209 151.043 133.854C104.974 140.942 80.5666 114.672 80.5666 114.672C80.5666 114.672 82.1942 130.518 90.2193 139.871C90.2193 139.871 79.0068 146.776 65.2021 144.644C65.2021 144.644 97.5283 183.7 176.991 146.681L172.524 130.232Z" fill="white"/>
<path d="M114.469 164.361C106.079 164.361 98.1616 163.312 90.8204 161.218C72.4979 155.994 64.206 146.169 63.8617 145.754C63.637 145.482 63.5002 145.149 63.4695 144.797C63.4388 144.446 63.5156 144.094 63.6897 143.787C63.8638 143.481 64.127 143.234 64.4444 143.081C64.7617 142.927 65.1183 142.874 65.4668 142.927C75.372 144.456 83.9899 141.044 87.5583 139.316C80.4273 129.612 78.9008 115.483 78.8358 114.852C78.7987 114.489 78.8765 114.124 79.0581 113.808C79.2398 113.492 79.5161 113.241 79.8481 113.091C80.1802 112.94 80.5511 112.898 80.9085 112.97C81.2659 113.041 81.5917 113.224 81.8399 113.491C81.8983 113.553 87.9527 119.96 99.4322 125.428C110.008 130.466 127.501 135.719 150.777 132.137C155.457 131.417 158.77 130.761 161.694 130.183C165.421 129.445 168.365 128.863 172.367 128.502C172.774 128.465 173.181 128.573 173.517 128.806C173.852 129.04 174.095 129.384 174.202 129.778L178.668 146.227C178.775 146.623 178.74 147.044 178.567 147.415C178.394 147.787 178.096 148.086 177.724 148.259C159.426 156.783 142.087 161.982 126.188 163.71C122.192 164.144 118.281 164.361 114.469 164.361ZM69.9863 146.791C73.8675 150.005 81.0981 154.873 92.03 157.947C107.974 162.429 135.24 163.899 174.926 145.721L171.231 132.111C168.1 132.46 165.523 132.97 162.369 133.594C159.411 134.179 156.059 134.843 151.306 135.574C140.615 137.219 130.186 137.216 120.308 135.564C112.39 134.24 104.81 131.86 97.7763 128.491C91.065 125.276 86.166 121.799 83.1028 119.307C84.2023 124.569 86.6251 133.015 91.5382 138.741C91.7021 138.932 91.8226 139.156 91.8914 139.397C91.9603 139.639 91.9758 139.893 91.937 140.141C91.8983 140.39 91.806 140.627 91.6667 140.836C91.5274 141.045 91.3443 141.222 91.1302 141.353C90.7086 141.613 81.8167 146.999 69.9863 146.791Z" fill="#1E284C"/>
<path d="M162.668 146.131C162.668 146.131 154.496 143.867 143.389 146.88C132.282 149.893 111.579 163.055 109.823 184.097C107.556 211.257 136.404 218.487 141.492 232.329C145.65 243.639 136.41 252.286 130.373 255.142C130.373 255.142 143.426 258.719 155.318 254.079C155.318 254.079 159.765 264.132 158.306 275.268C171.368 275.732 200.76 241.614 172.431 218.028C150.72 199.952 126.051 178.584 164.931 154.471L162.668 146.131Z" fill="white"/>
<path d="M158.553 277.012C158.448 277.012 158.346 277.01 158.243 277.007C158.001 276.998 157.764 276.939 157.546 276.833C157.328 276.727 157.135 276.577 156.978 276.393C156.822 276.208 156.706 275.992 156.637 275.76C156.569 275.528 156.55 275.284 156.581 275.044C157.637 266.99 155.415 259.419 154.306 256.292C142.514 260.187 130.444 256.966 129.913 256.821C129.571 256.727 129.265 256.53 129.038 256.258C128.81 255.985 128.671 255.649 128.641 255.295C128.61 254.942 128.688 254.587 128.865 254.279C129.041 253.971 129.308 253.724 129.629 253.572C133.851 251.575 143.918 243.972 139.859 232.931C138.162 228.314 133.211 224.204 127.969 219.853C118.437 211.942 106.575 202.096 108.09 183.954C109.111 171.712 116.172 162.787 121.916 157.455C129.265 150.632 137.592 146.653 142.933 145.204C154.368 142.101 162.78 144.359 163.132 144.457C163.423 144.537 163.688 144.692 163.9 144.906C164.113 145.12 164.267 145.385 164.346 145.677L166.61 154.017C166.708 154.378 166.686 154.761 166.549 155.11C166.412 155.458 166.166 155.753 165.848 155.95C153.242 163.768 146.837 171.542 146.267 179.716C145.327 193.201 160.973 206.227 173.544 216.694C189.54 230.013 186.794 245.437 183.734 253.446C178.525 267.077 166.254 277.012 158.553 277.012L158.553 277.012ZM155.317 252.341C155.654 252.341 155.984 252.439 156.266 252.623C156.549 252.807 156.772 253.069 156.908 253.377C157.086 253.779 160.993 262.763 160.246 273.344C166.662 271.956 176.299 263.157 180.485 252.205C183.214 245.063 185.652 231.301 171.318 219.366C158.137 208.392 141.733 194.734 142.797 179.474C143.433 170.361 150.017 161.917 162.916 153.686L161.265 147.605C158.883 147.156 152.207 146.291 143.844 148.56C134.059 151.215 113.293 163.43 111.555 184.244C110.192 200.579 120.816 209.397 130.19 217.178C135.803 221.836 141.104 226.236 143.124 231.731C145.144 237.226 144.484 242.801 141.215 247.852C139.665 250.248 137.529 252.485 135.142 254.27C139.8 254.899 147.518 255.257 154.686 252.461C154.887 252.382 155.101 252.342 155.317 252.342L155.317 252.341Z" fill="#1E284C"/>
<path d="M174.304 136.785L169.937 120.703L156.457 124.362L164.225 152.972C171.501 147.469 175.56 141.417 174.303 136.785H174.304Z" fill="#729D69"/>
<path d="M164.225 154.711C163.843 154.711 163.472 154.586 163.169 154.354C162.865 154.122 162.647 153.797 162.547 153.428L154.778 124.818C154.658 124.373 154.719 123.898 154.948 123.498C155.177 123.098 155.556 122.805 156.001 122.684L169.481 119.026C170.407 118.774 171.363 119.322 171.615 120.248L175.981 136.33C177.403 141.567 173.5 148.138 165.274 154.359C164.972 154.588 164.604 154.711 164.225 154.711ZM158.59 125.585L165.209 149.959C170.71 145.294 173.52 140.54 172.625 137.241L168.714 122.837L158.59 125.585Z" fill="#1E284C"/>
<path d="M174.303 136.785C175.938 142.806 168.596 151.228 156.873 157.721C152.216 160.3 157.005 169.821 164.28 167.022C188.453 157.721 190.382 144.3 188.673 138.541C187.137 133.364 182.098 129.452 172.524 130.232L174.304 136.785L174.303 136.785Z" fill="white"/>
<path d="M161.675 169.268C158.189 169.268 155.347 167.044 154.047 164.259C152.527 161.003 153.343 157.689 156.03 156.201C167.158 150.037 173.982 142.241 172.625 137.241L170.846 130.688C170.711 130.189 170.804 129.656 171.101 129.233C171.398 128.81 171.868 128.542 172.383 128.5C185.712 127.418 189.381 134.815 190.34 138.047C190.816 139.649 192.028 145.418 187.655 152.378C183.525 158.952 175.871 164.425 164.905 168.645C163.788 169.075 162.703 169.268 161.675 169.268ZM174.771 131.871L175.982 136.33C177.816 143.087 170.646 152.08 157.716 159.242C156.441 159.948 156.641 161.593 157.198 162.788C158.169 164.869 160.604 166.575 163.656 165.399C185.743 156.901 188.726 144.829 187.006 139.036C185.622 134.371 181.363 131.871 174.915 131.871H174.771L174.771 131.871Z" fill="#1E284C"/>
</g>
<g clip-path="url(#clip1_1017_694)">
<path d="M169.079 94.3878C178.486 94.3878 186.111 86.7471 186.111 77.3219C186.111 67.8966 178.486 60.2559 169.079 60.2559C159.673 60.2559 152.048 67.8966 152.048 77.3219C152.048 86.7471 159.673 94.3878 169.079 94.3878Z" fill="white"/>
<path d="M169.079 96.1209C158.734 96.1209 150.318 87.6878 150.318 77.3222C150.318 66.9565 158.734 58.5234 169.079 58.5234C179.424 58.5234 187.84 66.9565 187.84 77.3222C187.84 87.6878 179.424 96.1209 169.079 96.1209ZM169.079 61.9889C160.641 61.9889 153.777 68.8674 153.777 77.3222C153.777 85.777 160.642 92.6554 169.079 92.6554C177.517 92.6554 184.382 85.777 184.382 77.3222C184.382 68.8674 177.517 61.9889 169.079 61.9889Z" fill="#1E284C"/>
<path d="M179.718 63.9933H158.441L161.88 57.6406H176.279L179.718 63.9933Z" fill="white"/>
<path d="M179.717 65.7263H158.441C158.141 65.7263 157.847 65.6483 157.587 65.4999C157.326 65.3515 157.109 65.1378 156.955 64.8798C156.802 64.6218 156.718 64.3283 156.712 64.0281C156.706 63.7279 156.778 63.4313 156.921 63.1674L160.36 56.8148C160.508 56.5405 160.728 56.3116 160.995 56.152C161.263 55.9924 161.569 55.9082 161.88 55.9082H176.279C176.59 55.9082 176.896 55.9924 177.163 56.152C177.431 56.3116 177.65 56.5405 177.799 56.8148L181.238 63.1674C181.38 63.4313 181.452 63.7279 181.446 64.0281C181.44 64.3283 181.357 64.6218 181.204 64.8798C181.05 65.1378 180.833 65.3514 180.572 65.4998C180.312 65.6482 180.017 65.7263 179.718 65.7263H179.717ZM161.346 62.2609H176.812L175.249 59.3737H162.909L161.346 62.2609H161.346Z" fill="#1E284C"/>
<path d="M161.88 32.3071V57.6405H176.279V28.1342C176.279 27.3732 175.557 26.8201 174.824 27.0195L163.581 30.0777C163.093 30.2106 162.662 30.5009 162.354 30.9039C162.046 31.3069 161.88 31.7998 161.88 32.3071Z" fill="white"/>
<path d="M176.278 59.3729H161.88C161.653 59.3729 161.428 59.3281 161.218 59.2411C161.008 59.154 160.817 59.0264 160.657 58.8655C160.496 58.7046 160.369 58.5135 160.282 58.3033C160.195 58.0931 160.15 57.8677 160.15 57.6402V32.3067C160.15 30.4862 161.375 28.8817 163.128 28.4046L174.371 25.3467C174.798 25.2291 175.247 25.2124 175.681 25.2979C176.116 25.3835 176.525 25.5689 176.876 25.8397C177.229 26.1082 177.515 26.4552 177.712 26.8533C177.908 27.2514 178.009 27.6898 178.008 28.1339V57.6404C178.008 58.5976 177.234 59.3731 176.278 59.3731V59.3729ZM163.609 55.9074H174.549V28.8891L164.034 31.7493C163.912 31.7827 163.804 31.8553 163.728 31.956C163.651 32.0567 163.609 32.18 163.609 32.3067V55.9074ZM173.842 86.8926H166.173C165.218 86.8926 164.444 86.117 164.444 85.1598C164.444 84.2027 165.218 83.4271 166.173 83.4271H173.842C174.798 83.4271 175.572 84.2027 175.572 85.1598C175.572 86.117 174.798 86.8926 173.842 86.8926Z" fill="#1E284C"/>
<path d="M170.389 86.8919C170.162 86.892 169.937 86.8472 169.728 86.7601C169.518 86.673 169.327 86.5454 169.167 86.3845C169.006 86.2236 168.879 86.0326 168.792 85.8223C168.705 85.6121 168.66 85.3867 168.66 85.1592V75.3647L165.811 77.7953C165.461 78.0859 165.011 78.2266 164.558 78.187C164.105 78.1475 163.686 77.9308 163.391 77.584C163.096 77.2371 162.95 76.788 162.983 76.3337C163.016 75.8794 163.227 75.4565 163.569 75.1565L169.269 70.294C169.52 70.0796 169.828 69.9418 170.155 69.8969C170.482 69.852 170.815 69.9019 171.115 70.0406C171.414 70.1794 171.668 70.4012 171.846 70.6799C172.024 70.9586 172.119 71.2826 172.119 71.6134V85.159C172.119 86.1161 171.345 86.8917 170.39 86.8917L170.389 86.8919Z" fill="#1E284C"/>
</g>
<g clip-path="url(#clip2_1017_694)">
<path d="M45.3961 131.558C52.5594 131.558 58.3664 125.751 58.3664 118.588C58.3664 111.424 52.5594 105.617 45.3961 105.617C38.2328 105.617 32.4258 111.424 32.4258 118.588C32.4258 125.751 38.2328 131.558 45.3961 131.558Z" fill="#729D69"/>
</g>
<g clip-path="url(#clip3_1017_694)">
<path d="M233.961 154.719C233.577 154.719 233.204 154.591 232.9 154.356C232.596 154.12 232.379 153.79 232.283 153.417C232.187 153.045 232.217 152.65 232.369 152.297C232.52 151.943 232.785 151.65 233.122 151.464C233.258 151.387 242.23 146.252 248.739 133.103C254.792 120.876 259.901 99.0119 249.865 64.2917C249.739 63.8501 249.793 63.3768 250.015 62.9751C250.237 62.5735 250.609 62.2763 251.049 62.1486C251.49 62.0209 251.962 62.0731 252.364 62.2938C252.766 62.5145 253.064 62.8857 253.194 63.3261C257.77 79.156 259.681 93.7739 258.874 106.773C258.224 117.248 255.819 126.705 251.725 134.883C244.695 148.928 235.196 154.283 234.796 154.504C234.54 154.645 234.253 154.719 233.961 154.719Z" fill="#1E284C"/>
<path d="M232.026 115.26C232.026 115.26 225.58 136.697 245.526 141.791C245.526 141.791 251.314 125.673 232.026 115.26Z" fill="#729D69"/>
<path d="M245.527 143.528C245.383 143.528 245.239 143.51 245.099 143.474C239.021 141.922 234.612 138.781 231.993 134.138C227.187 125.618 230.235 115.2 230.367 114.76C230.441 114.514 230.569 114.287 230.741 114.096C230.914 113.905 231.126 113.755 231.364 113.657C231.601 113.559 231.858 113.514 232.115 113.528C232.371 113.541 232.622 113.611 232.848 113.733C243.418 119.44 246.767 126.883 247.714 132.122C248.749 137.846 247.223 142.197 247.157 142.379C247.037 142.715 246.815 143.006 246.524 143.212C246.232 143.417 245.884 143.528 245.527 143.528V143.528ZM233.207 117.947C232.648 121.166 232.134 127.349 235.02 132.448C236.918 135.801 240.03 138.209 244.286 139.622C244.576 138.076 244.835 135.531 244.274 132.579C243.162 126.724 239.443 121.81 233.207 117.947L233.207 117.947Z" fill="#1E284C"/>
<path d="M268.092 148.918C268.092 148.918 249.815 157.671 245.526 141.791C259.577 134.638 268.092 148.918 268.092 148.918Z" fill="#729D69"/>
<path d="M257.677 153.061C255.524 153.061 253.299 152.714 251.232 151.764C247.59 150.089 245.108 146.887 243.854 142.245C243.75 141.86 243.782 141.451 243.943 141.087C244.105 140.723 244.387 140.425 244.742 140.244C252.758 136.163 259.129 138.535 263.061 141.243C267.21 144.101 269.486 147.87 269.58 148.029C269.704 148.236 269.783 148.467 269.812 148.707C269.842 148.946 269.821 149.19 269.752 149.421C269.682 149.652 269.565 149.866 269.408 150.049C269.251 150.233 269.058 150.381 268.84 150.485C268.544 150.627 263.371 153.061 257.677 153.061ZM247.638 142.726C248.682 145.573 250.372 147.549 252.678 148.609C256.989 150.591 262.525 149.148 265.407 148.129C262.909 144.999 256.65 138.979 247.638 142.726Z" fill="#1E284C"/>
<path d="M253.452 126.211C253.452 126.211 262.318 113.578 277.133 123.186C265.529 137.683 253.452 126.211 253.452 126.211Z" fill="#729D69"/>
<path d="M264.165 132.256C257.378 132.256 252.475 127.676 252.26 127.471C251.958 127.185 251.77 126.799 251.728 126.384C251.687 125.97 251.796 125.554 252.035 125.213C252.136 125.069 254.562 121.66 258.987 119.532C263.099 117.554 269.748 116.329 278.075 121.73C278.278 121.862 278.451 122.035 278.584 122.238C278.716 122.441 278.805 122.67 278.843 122.91C278.882 123.15 278.87 123.395 278.808 123.629C278.746 123.864 278.636 124.083 278.485 124.273C274.529 129.215 270.055 131.889 265.187 132.221C264.842 132.245 264.501 132.256 264.165 132.256ZM255.941 125.965C257.691 127.185 261.04 129.035 264.983 128.756C268.333 128.517 271.519 126.791 274.474 123.618C269.507 120.905 264.81 120.581 260.487 122.661C258.413 123.659 256.877 124.998 255.941 125.965Z" fill="#1E284C"/>
<path d="M235.64 108.332C235.64 108.332 236.723 128.44 253.452 126.211C253.452 126.211 256.516 111.97 235.64 108.332Z" fill="#729D69"/>
<path d="M250.934 128.12C247.176 128.12 243.923 126.996 241.235 124.763C234.565 119.223 233.934 108.863 233.91 108.425C233.896 108.164 233.941 107.904 234.041 107.663C234.141 107.422 234.295 107.207 234.489 107.034C234.684 106.86 234.916 106.733 235.166 106.662C235.417 106.59 235.68 106.577 235.937 106.622C243.947 108.017 249.599 111.089 252.737 115.752C256.287 121.026 255.195 126.352 255.147 126.576C255.072 126.926 254.891 127.243 254.628 127.486C254.366 127.728 254.035 127.884 253.681 127.931C252.738 128.057 251.822 128.12 250.934 128.12ZM237.666 110.513C238.2 113.561 239.651 118.946 243.459 122.1C245.709 123.965 248.536 124.81 251.879 124.619C251.927 123.096 251.685 120.367 249.825 117.636C247.522 114.255 243.438 111.864 237.666 110.513Z" fill="#1E284C"/>
<path d="M256.995 108.691C256.995 108.691 262.253 96.6262 276.158 101.13C274.713 110.909 263.522 113.366 256.995 108.691Z" fill="#729D69"/>
<path d="M264.381 112.718C261.379 112.718 258.396 111.826 255.987 110.101C255.664 109.87 255.431 109.534 255.325 109.151C255.219 108.767 255.249 108.359 255.408 107.995C255.468 107.855 256.931 104.556 260.278 101.866C263.396 99.3605 268.774 96.9128 276.692 99.4769C277.082 99.6033 277.415 99.8642 277.631 100.213C277.847 100.562 277.933 100.977 277.873 101.383C277.183 106.052 274.356 109.764 270.119 111.566C268.301 112.339 266.337 112.718 264.381 112.718H264.381ZM259.312 108.07C262.169 109.52 265.728 109.662 268.765 108.37C271.451 107.228 273.314 105.121 274.123 102.354C265.458 100.252 260.951 105.491 259.312 108.07Z" fill="#1E284C"/>
<path d="M240.417 96.043C240.417 96.043 242.408 110.982 256.996 108.689C256.567 93.7006 240.417 96.043 240.417 96.043Z" fill="#729D69"/>
<path d="M254.052 110.665C250.683 110.665 247.739 109.737 245.269 107.89C239.755 103.766 238.739 96.5763 238.699 96.2722C238.638 95.8192 238.759 95.3606 239.034 94.996C239.309 94.6314 239.716 94.3901 240.168 94.3246C240.509 94.2753 248.59 93.1649 254.033 97.7506C257.013 100.261 258.592 103.924 258.727 108.64C258.739 109.062 258.597 109.474 258.328 109.799C258.058 110.123 257.68 110.339 257.263 110.404C256.154 110.578 255.083 110.665 254.052 110.665L254.052 110.665ZM242.562 97.6493C243.163 99.7014 244.521 103.009 247.362 105.123C249.458 106.682 252.072 107.362 255.146 107.154C254.789 104.25 253.673 101.989 251.816 100.418C249.022 98.0554 245.095 97.6486 242.723 97.6486C242.669 97.6486 242.614 97.6486 242.562 97.649V97.6493Z" fill="#1E284C"/>
<path d="M274.561 81.888C274.561 81.888 271.695 97.9128 256.896 91.4172C259.492 78.0563 274.561 81.888 274.561 81.888Z" fill="#729D69"/>
<path d="M263.413 94.7058C261.193 94.7058 258.783 94.1393 256.202 93.0059C255.841 92.8477 255.545 92.5712 255.362 92.222C255.179 91.8728 255.121 91.4716 255.196 91.0845C255.997 86.963 257.957 83.8863 261.023 81.9392C266.899 78.2077 274.66 80.1215 274.988 80.2043C275.413 80.3125 275.781 80.5777 276.018 80.9467C276.255 81.3157 276.344 81.761 276.267 82.1931C276.209 82.5187 274.772 90.2083 268.839 93.3804C267.186 94.264 265.373 94.7058 263.413 94.7058ZM258.936 90.3629C262.191 91.5291 264.968 91.5148 267.207 90.3178C270.219 88.7076 271.732 85.3254 272.402 83.2735C270.116 82.9916 266.019 82.8689 262.865 84.8801C260.984 86.0796 259.666 87.9203 258.936 90.3629Z" fill="#1E284C"/>
<path d="M256.896 91.4161C244.254 96.255 240.154 83.5842 240.154 83.5842C240.154 83.5842 254.498 79.1732 256.896 91.4161Z" fill="#729D69"/>
<path d="M251.45 94.2577C249.553 94.2577 247.767 93.8587 246.102 93.0612C240.599 90.4241 238.589 84.3762 238.506 84.12C238.435 83.901 238.409 83.6701 238.428 83.4407C238.447 83.2113 238.512 82.9881 238.618 82.7839C238.724 82.5797 238.869 82.3986 239.046 82.2513C239.222 82.1039 239.426 81.9932 239.646 81.9255C239.969 81.8264 247.612 79.535 253.257 82.9216C256.07 84.609 257.867 87.3548 258.597 91.0826C258.676 91.484 258.61 91.9004 258.412 92.2582C258.214 92.6161 257.896 92.8923 257.515 93.0382C255.391 93.8513 253.364 94.2579 251.45 94.2579L251.45 94.2577ZM242.603 84.8201C243.467 86.4284 245.072 88.7286 247.62 89.9404C249.702 90.9305 252.118 91.0442 254.819 90.2818C254.173 88.3012 253.075 86.8625 251.488 85.9067C248.641 84.1927 244.862 84.4447 242.603 84.8201Z" fill="#1E284C"/>
<path d="M254.871 77.417C254.871 77.417 253.519 66.5799 268.006 66.291C266.814 78.5469 254.871 77.417 254.871 77.417Z" fill="#729D69"/>
<path d="M255.644 79.1786C255.091 79.1786 254.751 79.1483 254.708 79.1443C254.316 79.1072 253.947 78.9371 253.664 78.662C253.381 78.3869 253.201 78.0234 253.152 77.6314C253.128 77.4405 252.605 72.9105 255.824 69.1832C258.382 66.2217 262.469 64.6646 267.971 64.5549C268.216 64.551 268.458 64.5984 268.683 64.6942C268.908 64.79 269.11 64.932 269.277 65.1111C269.443 65.2909 269.57 65.5039 269.648 65.7362C269.726 65.9684 269.754 66.2146 269.73 66.4585C269.03 73.6599 264.94 76.7432 261.632 78.0619C259.219 79.0238 256.892 79.1786 255.644 79.1786ZM265.947 68.1542C262.543 68.519 260.025 69.6253 258.445 71.4546C257.216 72.8781 256.781 74.5082 256.637 75.6679C257.661 75.5899 259.054 75.37 260.455 74.7945C263.33 73.6132 265.171 71.3842 265.947 68.1545L265.947 68.1542Z" fill="#1E284C"/>
<path d="M239.999 70.0866C239.999 70.0866 242.761 81.0563 254.871 77.4172C252.973 66.6766 239.999 70.0866 239.999 70.0866Z" fill="#729D69"/>
<path d="M250.24 79.8945C248.051 79.8945 246.06 79.3895 244.286 78.3812C239.688 75.768 238.373 70.7231 238.319 70.5095C238.208 70.0659 238.275 69.5961 238.508 69.2022C238.74 68.8083 239.118 68.5221 239.56 68.4059C239.858 68.3275 246.916 66.5248 251.971 69.767C254.447 71.3551 255.997 73.8267 256.577 77.1131C256.651 77.5321 256.569 77.9637 256.347 78.3259C256.124 78.6882 255.776 78.9559 255.369 79.0783C253.558 79.6226 251.846 79.8945 250.24 79.8945ZM242.399 71.429C243.045 72.691 244.181 74.34 246.025 75.378C247.874 76.419 250.136 76.6794 252.765 76.1568C252.236 74.64 251.36 73.5006 250.113 72.6973C247.709 71.1496 244.453 71.1922 242.399 71.429Z" fill="#1E284C"/>
<path d="M242.059 45.2793C242.059 45.2793 258.496 52.1361 251.529 63.809C237.141 63.6847 242.059 45.2793 242.059 45.2793Z" fill="#729D69"/>
<path d="M251.529 65.5443H251.514C247.38 65.5087 244.234 64.1092 242.165 61.3847C237.628 55.4103 240.27 45.2592 240.385 44.8299C240.449 44.5909 240.563 44.3684 240.72 44.1773C240.876 43.9861 241.072 43.8307 241.294 43.7214C241.515 43.6122 241.757 43.5516 242.004 43.5438C242.251 43.536 242.497 43.5811 242.725 43.6762C243.106 43.8354 252.099 47.6567 254.433 54.7424C255.501 57.9856 255.024 61.3352 253.017 64.6991C252.863 64.9568 252.645 65.1701 252.384 65.3182C252.123 65.4663 251.829 65.5441 251.529 65.5441V65.5443ZM243.313 47.8467C242.854 50.7776 242.477 56.0676 244.928 59.2888C246.172 60.9234 248.01 61.8249 250.528 62.0288C251.6 59.8718 251.8 57.8388 251.144 55.8394C249.886 52.0033 245.779 49.2203 243.313 47.8467Z" fill="#1E284C"/>
</g>
<g clip-path="url(#clip4_1017_694)">
<path d="M85.3504 214.635L87.0577 218.114L90.8756 218.672L88.1129 221.38L88.7651 225.204L85.3504 223.399L81.9356 225.204L82.5877 221.38L79.8252 218.672L83.6431 218.114L85.3504 214.635Z" fill="#729D69"/>
<path d="M88.7654 226.751C88.516 226.751 88.2703 226.69 88.0495 226.574L85.351 225.147L82.6527 226.574C82.3985 226.708 82.1121 226.768 81.8257 226.747C81.5393 226.726 81.2644 226.625 81.0321 226.456C80.7998 226.286 80.6194 226.054 80.5112 225.787C80.403 225.519 80.3714 225.227 80.4199 224.942L80.9351 221.92L78.7517 219.779C78.5461 219.578 78.4007 219.322 78.3319 219.042C78.2631 218.762 78.2737 218.467 78.3625 218.193C78.4513 217.918 78.6147 217.674 78.8342 217.488C79.0538 217.302 79.3208 217.181 79.605 217.139L82.6219 216.698L83.9712 213.949C84.2302 213.42 84.7651 213.086 85.3508 213.086C85.9365 213.086 86.4716 213.42 86.731 213.949L88.0803 216.698L91.0972 217.139C91.3814 217.181 91.6484 217.301 91.868 217.488C92.0875 217.674 92.2509 217.918 92.3397 218.193C92.4285 218.467 92.4391 218.761 92.3703 219.042C92.3015 219.322 92.1561 219.578 91.9505 219.779L89.7673 221.92L90.2826 224.942C90.3204 225.164 90.3096 225.392 90.2509 225.609C90.1921 225.827 90.0868 226.029 89.9423 226.201C89.7979 226.374 89.6177 226.512 89.4145 226.607C89.2112 226.702 88.9898 226.751 88.7657 226.751L88.7654 226.751ZM85.3508 221.85C85.6003 221.85 85.8461 221.911 86.067 222.028L86.7214 222.374L86.5964 221.641C86.5543 221.394 86.5726 221.14 86.6497 220.901C86.7268 220.662 86.8604 220.446 87.039 220.271L87.5685 219.752L86.8369 219.645C86.5899 219.609 86.3554 219.513 86.1535 219.365C85.9516 219.218 85.7885 219.023 85.6781 218.798L85.3508 218.131L85.0235 218.798C84.9131 219.023 84.7499 219.217 84.548 219.365C84.3461 219.512 84.1116 219.608 83.8647 219.645L83.1331 219.752L83.6628 220.271C83.8414 220.446 83.9751 220.662 84.0522 220.901C84.1292 221.14 84.1474 221.394 84.1052 221.641L83.9804 222.374L84.6346 222.028C84.8555 221.911 85.1013 221.85 85.3508 221.85Z" fill="#729D69"/>
</g>
<g clip-path="url(#clip5_1017_694)">
<path d="M104.806 224.875L106.644 228.627L110.752 229.228L107.779 232.149L108.481 236.272L104.806 234.325L101.131 236.272L101.833 232.149L98.8604 229.228L102.969 228.627L104.806 224.875Z" fill="#729D69"/>
<path d="M108.481 238.333C108.15 238.333 107.823 238.252 107.53 238.096L104.807 236.653L102.084 238.096C101.746 238.275 101.365 238.355 100.985 238.327C100.604 238.3 100.239 238.165 99.9302 237.939C99.6215 237.713 99.3817 237.405 99.2379 237.049C99.0942 236.693 99.0523 236.303 99.117 235.924L99.6369 232.868L97.4337 230.704C97.1605 230.436 96.9673 230.096 96.8759 229.722C96.7845 229.349 96.7986 228.958 96.9166 228.592C97.0345 228.226 97.2516 227.901 97.5433 227.653C97.835 227.406 98.1897 227.245 98.5673 227.19L101.612 226.744L102.973 223.963C103.317 223.26 104.028 222.814 104.807 222.814C105.585 222.814 106.296 223.26 106.64 223.963L108.002 226.744L111.047 227.189C111.424 227.245 111.779 227.405 112.071 227.653C112.362 227.901 112.579 228.226 112.697 228.592C112.815 228.957 112.829 229.349 112.738 229.722C112.646 230.095 112.453 230.436 112.18 230.704L109.977 232.868L110.497 235.924C110.547 236.22 110.533 236.523 110.455 236.812C110.377 237.102 110.237 237.371 110.045 237.6C109.853 237.83 109.614 238.014 109.344 238.141C109.073 238.267 108.779 238.333 108.482 238.333H108.481ZM104.806 232.265C105.138 232.265 105.464 232.346 105.758 232.501L105.765 232.505L105.764 232.497C105.708 232.168 105.732 231.83 105.834 231.512C105.937 231.194 106.115 230.906 106.352 230.673L106.358 230.667L106.349 230.666C106.021 230.618 105.71 230.49 105.442 230.294C105.173 230.097 104.957 229.838 104.81 229.538L104.806 229.531L104.802 229.538C104.656 229.838 104.439 230.097 104.171 230.294C103.902 230.49 103.591 230.618 103.263 230.666L103.255 230.667L103.261 230.673C103.498 230.906 103.675 231.194 103.778 231.512C103.88 231.83 103.904 232.168 103.848 232.497L103.847 232.505L103.854 232.501C104.148 232.346 104.474 232.265 104.806 232.265H104.806Z" fill="#729D69"/>
</g>
<g clip-path="url(#clip6_1017_694)">
<path d="M254.497 179.049L259.495 184.914L267.122 184.113L263.132 190.688L266.268 197.735L258.804 195.934L253.115 201.091L252.491 193.403L245.84 189.542L252.918 186.591L254.497 179.049Z" fill="#729D69"/>
<path d="M266.704 199.447C266.428 199.518 266.139 199.52 265.862 199.453L259.297 197.869L254.294 202.404C254.05 202.624 253.75 202.772 253.428 202.829C253.105 202.887 252.772 202.853 252.467 202.731C252.162 202.609 251.897 202.403 251.702 202.138C251.507 201.872 251.389 201.557 251.363 201.228L250.815 194.466L244.964 191.071C244.679 190.906 244.446 190.664 244.291 190.373C244.136 190.082 244.065 189.754 244.085 189.425C244.106 189.096 244.218 188.78 244.408 188.512C244.598 188.244 244.86 188.035 245.162 187.909L251.388 185.313L252.776 178.68C252.844 178.357 253 178.061 253.227 177.823C253.453 177.586 253.742 177.417 254.06 177.336C254.377 177.255 254.711 177.265 255.024 177.364C255.337 177.464 255.616 177.65 255.83 177.901L260.226 183.059L266.934 182.355C267.26 182.321 267.59 182.379 267.885 182.523C268.18 182.667 268.43 182.891 268.606 183.17C268.781 183.449 268.876 183.771 268.879 184.101C268.882 184.431 268.794 184.754 268.623 185.036L265.114 190.818L267.872 197.017C267.976 197.252 268.029 197.507 268.025 197.764C268.022 198.022 267.962 198.275 267.851 198.506C267.74 198.738 267.58 198.942 267.382 199.105C267.184 199.267 266.953 199.384 266.705 199.447L266.704 199.447ZM258.367 194.221C258.643 194.15 258.932 194.148 259.209 194.215L263.208 195.18L261.528 191.405C261.411 191.143 261.36 190.857 261.378 190.571C261.396 190.285 261.482 190.008 261.631 189.764L263.768 186.242L259.682 186.671C259.399 186.7 259.112 186.66 258.847 186.554C258.582 186.448 258.347 186.279 258.161 186.061L255.484 182.919L254.638 186.959C254.579 187.239 254.454 187.501 254.272 187.721C254.09 187.941 253.858 188.114 253.595 188.223L249.803 189.804L253.366 191.872C253.613 192.015 253.822 192.217 253.975 192.459C254.128 192.702 254.219 192.978 254.243 193.263L254.577 197.382L257.624 194.62C257.836 194.428 258.09 194.291 258.367 194.221Z" fill="#729D69"/>
</g>
<g clip-path="url(#clip7_1017_694)">
<path d="M32.3765 98.2152L37.3746 104.08L45.0016 103.279L41.0122 109.854L44.1476 116.901L36.6838 115.1L30.9944 120.257L30.371 112.569L23.7195 108.708L30.7981 105.757L32.3765 98.2152Z" fill="white"/>
<path d="M44.5841 118.613C44.3082 118.684 44.0191 118.686 43.7419 118.619L37.1772 117.035L32.1734 121.57C31.9301 121.79 31.6302 121.938 31.3075 121.995C30.9848 122.053 30.6522 122.019 30.3473 121.897C30.0423 121.775 29.7772 121.569 29.582 121.304C29.3869 121.038 29.2693 120.723 29.2428 120.394L28.6944 113.632L22.8436 110.237C22.5593 110.072 22.3263 109.83 22.171 109.539C22.0158 109.248 21.9445 108.92 21.9651 108.591C21.9858 108.262 22.0976 107.946 22.288 107.678C22.4783 107.41 22.7396 107.201 23.0423 107.075L29.2681 104.479L30.6562 97.8459C30.7237 97.5234 30.8797 97.2266 31.1064 96.9891C31.3332 96.7515 31.6217 96.5827 31.9394 96.5016C32.2571 96.4206 32.5913 96.4306 32.9041 96.5305C33.217 96.6304 33.4961 96.8162 33.7098 97.0669L38.1057 102.225L44.814 101.521C45.1401 101.487 45.4694 101.545 45.7648 101.689C46.0602 101.833 46.3099 102.057 46.4856 102.336C46.6613 102.615 46.756 102.937 46.7592 103.267C46.7623 103.597 46.6736 103.92 46.5032 104.202L42.9941 109.984L45.7517 116.183C45.8564 116.418 45.9087 116.673 45.9051 116.93C45.9015 117.188 45.8421 117.441 45.7309 117.672C45.6197 117.904 45.4595 118.108 45.2615 118.271C45.0635 118.433 44.8325 118.55 44.5845 118.613L44.5841 118.613ZM36.2464 113.387C36.5224 113.316 36.8115 113.314 37.0888 113.381L41.0875 114.346L39.4078 110.571C39.2913 110.309 39.2398 110.023 39.2577 109.737C39.2756 109.451 39.3623 109.174 39.5105 108.93L41.6479 105.408L37.5619 105.837C37.2785 105.866 36.992 105.827 36.727 105.72C36.4621 105.614 36.2266 105.445 36.041 105.227L33.3634 102.085L32.5179 106.125C32.4593 106.405 32.3337 106.667 32.1521 106.887C31.9704 107.107 31.738 107.28 31.4751 107.389L27.6828 108.97L31.2462 111.038C31.4934 111.181 31.7023 111.383 31.8549 111.625C32.0075 111.868 32.0994 112.144 32.1224 112.429L32.4564 116.548L35.5043 113.786C35.7157 113.594 35.9704 113.457 36.2464 113.387Z" fill="white"/>
</g>
<g clip-path="url(#clip8_1017_694)">
<path d="M205.327 130.4C209.868 130.4 213.549 126.718 213.549 122.177C213.549 117.636 209.868 113.955 205.327 113.955C200.786 113.955 197.104 117.636 197.104 122.177C197.104 126.718 200.786 130.4 205.327 130.4Z" fill="white"/>
</g>
<g clip-path="url(#clip9_1017_694)">
<path d="M66.9466 205.449C64.1072 205.449 61.0667 204.938 58.2273 203.45C55.514 202.029 53.3198 200.313 51.5925 198.431C48.5541 199.246 45.2815 199.571 42.0651 199.132C36.894 198.426 29.6601 195.46 24.5625 185.338C19.9561 176.191 20.6998 165.116 26.4573 157.124C30.5845 151.395 36.5325 148.471 42.3631 149.301C46.8745 149.943 50.0971 152.562 51.4372 156.676C53.1349 161.888 51.4583 168.117 48.8271 170.665C48.4955 170.978 48.0537 171.148 47.5974 171.138C47.1411 171.128 46.7071 170.939 46.3893 170.613C46.0715 170.286 45.8954 169.847 45.8993 169.392C45.9032 168.936 46.0867 168.5 46.4101 168.179C47.9982 166.641 49.4605 161.812 48.1364 157.748C47.2012 154.877 45.094 153.189 41.8735 152.731C37.3436 152.086 32.6346 154.484 29.2759 159.147C25.4699 164.43 22.764 174.052 27.6646 183.783C31.2124 190.827 36.2159 194.837 42.5362 195.699C44.8411 196.014 47.1367 195.868 49.2981 195.423C46.598 191.105 45.9192 186.333 46.759 182.379C47.902 176.998 51.7811 173.315 56.6414 172.997C60.6923 172.732 63.9836 174.575 65.6653 178.055C67.7274 182.322 66.718 187.993 63.2105 191.845C61.3867 193.848 58.5675 195.78 55.2442 197.179C56.5216 198.358 58.0468 199.444 59.8409 200.383C67.229 204.252 76.8841 199.886 76.9811 199.842C77.3981 199.655 77.8721 199.64 78.3002 199.8C78.7283 199.96 79.0759 200.281 79.2675 200.696C79.4592 201.11 79.4794 201.583 79.3238 202.012C79.1682 202.441 78.8493 202.791 78.4364 202.987C78.1247 203.13 72.9936 205.449 66.9471 205.449L66.9466 205.449ZM57.3868 176.436C57.2167 176.436 57.0441 176.441 56.8682 176.453C53.5512 176.67 50.9786 179.216 50.1541 183.097C49.4297 186.507 50.1457 190.693 52.7998 194.416C56.2638 193.132 59.1009 191.207 60.6409 189.515C63.2211 186.681 64.0012 182.587 62.5382 179.559C61.5587 177.532 59.741 176.436 57.3868 176.436Z" fill="white"/>
</g>
<defs>
<clipPath id="clip0_1017_694">
<rect width="171.396" height="253.619" fill="white" transform="translate(63.4629 23.3926)"/>
</clipPath>
<clipPath id="clip1_1017_694">
<rect width="37.5217" height="70.8744" fill="white" transform="translate(150.318 25.2461)"/>
</clipPath>
<clipPath id="clip2_1017_694">
<rect width="25.941" height="25.941" fill="white" transform="translate(32.4258 105.617)"/>
</clipPath>
<clipPath id="clip3_1017_694">
<rect width="49.5658" height="111.176" fill="white" transform="translate(229.3 43.543)"/>
</clipPath>
<clipPath id="clip4_1017_694">
<rect width="14.1286" height="13.6653" fill="white" transform="translate(78.2861 213.086)"/>
</clipPath>
<clipPath id="clip5_1017_694">
<rect width="15.9815" height="15.5182" fill="white" transform="translate(96.8154 222.814)"/>
</clipPath>
<clipPath id="clip6_1017_694">
<rect width="25.4777" height="24.5513" fill="white" transform="translate(241.716 180.484) rotate(-14.3103)"/>
</clipPath>
<clipPath id="clip7_1017_694">
<rect width="25.4777" height="24.5513" fill="white" transform="translate(19.5957 99.6504) rotate(-14.3103)"/>
</clipPath>
<clipPath id="clip8_1017_694">
<rect width="16.4447" height="16.4447" fill="white" transform="translate(197.104 113.955)"/>
</clipPath>
<clipPath id="clip9_1017_694">
<rect width="57.9039" height="56.2826" fill="white" transform="translate(21.54 149.16)"/>
</clipPath>
</defs>
</svg>
